<svg width="14" height="9" viewBox="0 0 14 9" fill="none" xmlns="http://www.w3.org/2000/svg">
<path opacity="0.8" d="M13.0917 8.08357L13.0918 8.08346C13.3539 7.81775 13.5 7.45882 13.5 7.08595C13.5 6.71307 13.3539 6.35414 13.0918 6.08844L13.0918 6.08838L7.98828 0.916488L7.98822 0.916433C7.72581 0.650581 7.36852 0.5 6.99455 0.5C6.62059 0.5 6.2633 0.650582 6.00088 0.916433L6.00083 0.916488L0.897346 6.08838L0.897292 6.08833L0.891299 6.09462C0.636681 6.36178 0.49689 6.71824 0.500052 7.08694C0.503214 7.45566 0.6491 7.80967 0.908335 8.07238C1.16778 8.3353 1.52014 8.48565 1.88991 8.48891C2.25969 8.49216 2.61464 8.34803 2.87863 8.08964L2.87868 8.0897L2.88479 8.08351L6.99455 3.91866L11.1043 8.08351L11.1044 8.08357C11.3668 8.34942 11.7241 8.5 12.098 8.5C12.472 8.5 12.8293 8.34942 13.0917 8.08357Z" fill="#E4E4E4" stroke="#E4E4E4"/>
</svg>
