<svg width="40" height="40" viewBox="0 0 40 40" fill="none" xmlns="http://www.w3.org/2000/svg">
<path fill-rule="evenodd" clip-rule="evenodd" d="M12.6667 6.07156C9.11662 6.07258 7.30811 6.10657 6.17157 7.24311C5 8.41468 5 10.3003 5 14.0715V15.5715C5 15.8072 5 15.9251 5.07322 15.9983C5.14645 16.0715 5.2643 16.0715 5.5 16.0715H34.5C34.7357 16.0715 34.8536 16.0715 34.9268 15.9983C35 15.9251 35 15.8072 35 15.5715V14.0715C35 10.3003 35 8.41468 33.8284 7.24311C32.6919 6.10657 30.8834 6.07258 27.3333 6.07156L27.3333 10.2382C27.3333 11.0666 26.6618 11.7382 25.8333 11.7382C25.0049 11.7382 24.3333 11.0666 24.3333 10.2382L24.3333 6.07153H15.6667L15.6667 10.2382C15.6667 11.0666 14.9951 11.7382 14.1667 11.7382C13.3382 11.7382 12.6667 11.0666 12.6667 10.2382L12.6667 6.07156Z" fill="#E4E4E4" fill-opacity="0.75"/>
<path d="M5 18.2385C5 18.0028 5 17.885 5.07322 17.8117C5.14645 17.7385 5.2643 17.7385 5.5 17.7385H34.5C34.7357 17.7385 34.8536 17.7385 34.9268 17.8117C35 17.885 35 18.0028 35 18.2385V24.7385C35 28.5098 35 30.3954 33.8284 31.567C32.6569 32.7385 30.7712 32.7385 27 32.7385H13C9.22876 32.7385 7.34315 32.7385 6.17157 31.567C5 30.3954 5 28.5098 5 24.7385V18.2385Z" fill="#E4E4E4" fill-opacity="0.75"/>
<path d="M14.1667 3.57153L14.1667 10.2382" stroke="#E4E4E4" stroke-opacity="0.75" stroke-linecap="round"/>
<path d="M25.8332 3.57153L25.8333 10.2382" stroke="#E4E4E4" stroke-opacity="0.75" stroke-linecap="round"/>
</svg>
