<svg width="24" height="25" viewBox="0 0 24 25" fill="none" xmlns="http://www.w3.org/2000/svg">
<path fill-rule="evenodd" clip-rule="evenodd" d="M12 24.3491C18.6274 24.3491 24 18.9765 24 12.3491C24 5.7217 18.6274 0.349121 12 0.349121C5.37258 0.349121 0 5.7217 0 12.3491C0 18.9765 5.37258 24.3491 12 24.3491ZM12.0779 3.08474C11.9999 3.15869 11.9999 3.27773 11.9999 3.51583V12.0605C11.9999 12.2014 11.9999 12.2718 11.9664 12.3298C11.9329 12.3878 11.8719 12.4231 11.7499 12.4935L4.35 16.7658C4.1438 16.8849 4.0407 16.9444 4.01567 17.0489C3.99064 17.1535 4.05325 17.2496 4.17847 17.442C4.97878 18.6711 6.05896 19.6964 7.33322 20.4321C8.75207 21.2512 10.3615 21.6825 11.9999 21.6825C13.6382 21.6825 15.2477 21.2512 16.6666 20.4321C18.0854 19.6129 19.2636 18.4347 20.0828 17.0158C20.902 15.597 21.3332 13.9875 21.3332 12.3492C21.3332 10.7108 20.902 9.10134 20.0828 7.6825C19.2636 6.26365 18.0854 5.08543 16.6666 4.26626C15.3923 3.53056 13.9643 3.10775 12.4997 3.02922C12.2705 3.01693 12.1559 3.01079 12.0779 3.08474Z" fill="#E4E4E4"/>
</svg>
