<svg width="23" height="26" viewBox="0 0 23 26" fill="none" xmlns="http://www.w3.org/2000/svg">
<path d="M11.4821 0C11.1083 0 10.7346 0.0865039 10.4451 0.259512L1.20198 5.78226C0.622893 6.12828 0.622893 6.67543 1.20198 7.02144L10.4451 12.5442C11.0242 12.8902 11.9399 12.8902 12.5189 12.5442L21.762 7.02144C22.3411 6.67549 22.3411 6.12828 21.762 5.78232L12.5189 0.259574C12.2294 0.0864414 11.8557 0 11.4821 0ZM4.38342 5.16336C4.38346 5.16336 4.3835 5.16336 4.38354 5.16336C4.8666 5.17635 5.32418 5.2998 5.66606 5.50937C6.02865 5.73162 6.23234 6.03305 6.23233 6.34735C6.23232 6.66165 6.02859 6.96307 5.66598 7.18531C5.30337 7.40754 4.81157 7.53239 4.29878 7.53238C3.78598 7.53237 3.29419 7.40751 2.9316 7.18526C2.65612 7.0164 2.4703 6.80047 2.39849 6.56577C2.32668 6.33107 2.37222 6.08855 2.52916 5.86999C2.68609 5.65143 2.9471 5.46702 3.27797 5.34094C3.60884 5.21486 3.99413 5.15298 4.38336 5.16342L4.38342 5.16336ZM11.5382 5.17867C11.918 5.18212 12.2879 5.2541 12.6014 5.38561C12.915 5.51711 13.1583 5.70233 13.3012 5.91811C13.444 6.1339 13.4799 6.37069 13.4045 6.59892C13.329 6.82715 13.1455 7.03669 12.8769 7.20139C12.698 7.3131 12.4848 7.40199 12.2495 7.4629C12.0142 7.52381 11.7615 7.55555 11.5061 7.55627C11.2507 7.557 10.9976 7.5267 10.7614 7.46713C10.5252 7.40756 10.3106 7.3199 10.13 7.2092C9.94937 7.09851 9.80634 6.96698 9.70914 6.82221C9.61194 6.67744 9.5625 6.52231 9.56368 6.36576C9.56486 6.20922 9.61663 6.05437 9.71601 5.91015C9.81538 5.76594 9.9604 5.63523 10.1427 5.52556C10.3256 5.41348 10.5433 5.32502 10.783 5.26544C11.0227 5.20585 11.2794 5.17635 11.538 5.17867H11.5382ZM18.779 5.17961C18.779 5.17961 18.7791 5.17961 18.7791 5.17961C19.2621 5.19258 19.7197 5.31601 20.0616 5.52556C20.4216 5.74815 20.623 6.04906 20.6219 6.36245C20.6207 6.67584 20.4171 6.97619 20.0555 7.19778C19.6939 7.41937 19.2039 7.54416 18.6925 7.54484C18.1812 7.54551 17.6903 7.42202 17.3272 7.20139C17.0517 7.03252 16.8659 6.8166 16.7941 6.5819C16.7223 6.34721 16.7679 6.1047 16.9248 5.88615C17.0818 5.6676 17.3428 5.4832 17.6736 5.35713C18.0045 5.23105 18.3898 5.16918 18.779 5.17961ZM0.584771 8.06761C0.236656 8.05793 0 8.33862 0 8.83515V18.6916C0 19.3824 0.458063 20.2018 1.03715 20.5473L9.92791 25.8505C10.507 26.1959 10.9651 25.9228 10.9651 25.2321V15.3754C10.9651 14.6847 10.507 13.8654 9.92791 13.5199L1.03715 8.21668C0.874373 8.11949 0.720979 8.07124 0.584771 8.06749V8.06761ZM22.4152 8.06774C22.2791 8.07149 22.1258 8.11962 21.963 8.21681L13.0719 13.52C12.4928 13.8654 12.0348 14.6849 12.0348 15.3757V25.2324C12.0348 25.923 12.4928 26.1961 13.0719 25.8505L21.963 20.5476C22.5421 20.2021 23 19.3827 23 18.692V8.83527C23 8.33888 22.7634 8.05824 22.4152 8.06786V8.06774ZM8.18649 13.48C8.3936 13.4651 8.62886 13.5323 8.86849 13.6746C9.10813 13.8169 9.34365 14.0294 9.55127 14.2906C9.75888 14.5517 9.93123 14.8523 10.0509 15.1619C10.1706 15.4716 10.2333 15.7793 10.2328 16.054C10.233 16.2595 10.198 16.442 10.1296 16.591C10.0613 16.7401 9.96106 16.8528 9.83461 16.9227C9.70817 16.9925 9.558 17.0183 9.39272 16.9983C9.22743 16.9784 9.05025 16.9132 8.87132 16.8065C8.6924 16.6998 8.51522 16.5537 8.34994 16.3765C8.18465 16.1993 8.03449 15.9945 7.90805 15.7738C7.7816 15.5531 7.68135 15.3208 7.61303 15.0903C7.5447 14.8597 7.50965 14.6354 7.50986 14.4302C7.50937 14.156 7.57162 13.9239 7.69038 13.7571C7.80913 13.5903 7.98022 13.4948 8.18649 13.48ZM18.2023 15.2717C18.2024 15.2717 18.2024 15.2717 18.2024 15.2717C18.4087 15.2865 18.5797 15.3821 18.6985 15.5489C18.8172 15.7156 18.8794 15.9477 18.879 16.2219C18.8785 16.6363 18.7349 17.1189 18.4796 17.5638C18.2243 18.0086 17.8783 18.3794 17.5175 18.5945C17.1567 18.8097 16.8106 18.8517 16.5553 18.7113C16.3001 18.5709 16.1564 18.2596 16.156 17.8457C16.1555 17.571 16.2182 17.2633 16.3379 16.9536C16.4576 16.644 16.6299 16.3434 16.8375 16.0823C17.0452 15.8211 17.2807 15.6086 17.5203 15.4663C17.76 15.324 17.9952 15.2568 18.2023 15.2717ZM1.40934 17.108C1.61646 17.0932 1.85172 17.1603 2.09136 17.3026C2.331 17.445 2.56653 17.6575 2.77414 17.9186C2.98176 18.1798 3.15411 18.4804 3.27378 18.79C3.39345 19.0997 3.45619 19.4074 3.45568 19.6821C3.45589 19.8876 3.42083 20.0701 3.3525 20.2191C3.28417 20.3682 3.18392 20.4809 3.05747 20.5508C2.93102 20.6207 2.78086 20.6464 2.61557 20.6264C2.45028 20.6065 2.27311 20.5413 2.09418 20.4346C1.91525 20.3279 1.73808 20.1818 1.57279 20.0046C1.4075 19.8274 1.25734 19.6226 1.1309 19.4019C1.00446 19.1812 0.904206 18.9489 0.835883 18.7184C0.76756 18.4878 0.732503 18.2635 0.732718 18.0583C0.732214 17.7841 0.794461 17.552 0.913217 17.3852C1.03197 17.2184 1.20307 17.1228 1.40934 17.108Z" fill="#E4E4E4"/>
</svg>
