<svg width="30" height="24" viewBox="0 0 30 24" fill="none" xmlns="http://www.w3.org/2000/svg">
<path d="M19.8723 6.56489C19.8723 9.25182 17.6919 11.4315 15.0004 11.4315C12.3088 11.4315 10.1284 9.25182 10.1284 6.56489C10.1284 3.87796 12.3088 1.69824 15.0004 1.69824C17.6919 1.69824 19.8723 3.87796 19.8723 6.56489Z" stroke="#E4E4E4" stroke-width="2" stroke-linecap="round"/>
<path d="M19.7447 5.83278C20.2214 5.27177 20.8675 4.88027 21.5861 4.71725C22.3047 4.55423 23.0568 4.62855 23.7295 4.92899C24.4022 5.22942 24.9589 5.7397 25.3164 6.38301C25.6738 7.02631 25.8126 7.768 25.7121 8.49675C25.6116 9.2255 25.2772 9.90214 24.7588 10.425C24.2405 10.9479 23.5662 11.2888 22.8372 11.3963C22.1082 11.5038 21.364 11.3721 20.7164 11.0211C20.0688 10.67 19.5528 10.1187 19.2458 9.44991" stroke="#E4E4E4" stroke-width="2"/>
<path d="M10.6904 9.58201C10.363 10.2208 9.84163 10.7398 9.20076 11.0647C8.55987 11.3896 7.83244 11.5035 7.1227 11.3901C6.41296 11.2767 5.75747 10.9419 5.25006 10.4337C4.74266 9.92548 4.40936 9.27002 4.29771 8.56123C4.18607 7.85243 4.30177 7.12649 4.62833 6.48732C4.9549 5.84814 5.47564 5.32844 6.11611 5.00279C6.7566 4.67714 7.48388 4.56231 8.19377 4.67482C8.90365 4.78734 9.55955 5.12139 10.0676 5.62896" stroke="#E4E4E4" stroke-width="2"/>
<path d="M22.166 21.2299L21.1857 21.4275L21.3474 22.2299H22.166V21.2299ZM27.964 20.1264L27.0044 20.4077V20.4077L27.964 20.1264ZM19.082 16.4054L18.4775 15.6088L17.3196 16.4876L18.5542 17.2548L19.082 16.4054ZM27.0788 20.2299H22.166V22.2299H27.0788V20.2299ZM27.0044 20.4077C27.0003 20.3937 26.9968 20.3659 27.004 20.3321C27.0109 20.3003 27.0245 20.276 27.0376 20.2601C27.0631 20.229 27.0848 20.2299 27.0788 20.2299V22.2299C28.2467 22.2299 29.308 21.1562 28.9236 19.845L27.0044 20.4077ZM22.3398 16.3633C23.8797 16.3633 24.9006 16.9829 25.6138 17.7761C26.3534 18.5988 26.7765 19.6304 27.0044 20.4077L28.9236 19.845C28.6533 18.9229 28.1207 17.573 27.101 16.4389C26.0549 15.2754 24.5128 14.3633 22.3398 14.3633V16.3633ZM19.6865 17.202C20.331 16.7129 21.1816 16.3633 22.3398 16.3633V14.3633C20.7382 14.3633 19.4644 14.8599 18.4775 15.6088L19.6865 17.202ZM18.5542 17.2548C20.2409 18.3028 20.9198 20.1084 21.1857 21.4275L23.1462 21.0323C22.8364 19.4955 21.9859 17.0325 19.6098 15.556L18.5542 17.2548Z" fill="#E4E4E4"/>
<path d="M10.9178 16.4054L11.4456 17.2547L12.6803 16.4875L11.5223 15.6088L10.9178 16.4054ZM2.03582 20.1264L2.99543 20.4077L2.03582 20.1264ZM7.83379 21.2299V22.2299H8.65232L8.81407 21.4275L7.83379 21.2299ZM7.66009 16.3633C8.81821 16.3633 9.66878 16.7129 10.3133 17.202L11.5223 15.6088C10.5355 14.8599 9.26162 14.3633 7.66009 14.3633V16.3633ZM2.99543 20.4077C3.22331 19.6304 3.64641 18.5988 4.38606 17.7761C5.09927 16.9829 6.1202 16.3633 7.66009 16.3633V14.3633C5.48706 14.3633 3.94499 15.2754 2.89885 16.4389C1.87915 17.573 1.34658 18.9229 1.07621 19.845L2.99543 20.4077ZM2.92103 20.2299C2.91509 20.2299 2.93675 20.229 2.96228 20.2601C2.97532 20.276 2.98896 20.3003 2.99581 20.3321C3.00308 20.3659 2.99952 20.3937 2.99543 20.4077L1.07621 19.845C0.691814 21.1562 1.75308 22.2299 2.92103 22.2299V20.2299ZM7.83379 20.2299H2.92103V22.2299H7.83379V20.2299ZM8.81407 21.4275C9.07998 20.1084 9.75886 18.3028 11.4456 17.2547L10.39 15.556C8.01382 17.0325 7.1633 19.4955 6.8535 21.0323L8.81407 21.4275Z" fill="#E4E4E4"/>
<path d="M15.0001 15.3652C20.6452 15.3652 21.9487 19.703 22.2497 21.7062C22.3317 22.2523 21.8923 22.6985 21.34 22.6985H8.66016C8.10787 22.6985 7.66845 22.2523 7.75051 21.7062C8.05148 19.703 9.35493 15.3652 15.0001 15.3652Z" stroke="#E4E4E4" stroke-width="2" stroke-linecap="round"/>
</svg>
